<svg xmlns="http://www.w3.org/2000/svg" viewBox="0 0 50.04 48.13"><defs><style>.cls-1{fill:#fff;}.cls-2{fill:#010101;}</style></defs><title>Asset 2</title><g id="Layer_2" data-name="Layer 2"><g id="Layer_1-2" data-name="Layer 1"><path class="cls-1" d="M7.65,27.76h5.63v.94h.94v3.76h-.94v.94H8.59v2.81H7.65Zm.94,4.7h4.69V28.7H8.59Z"/><path class="cls-1" d="M15.16,27.76h5.63v.94h.94v3.76h-.94v.94h-.93v.94h.93v.93h.94v.94h-.94v-.94h-.93v-.93h-.94V33.4H16.1v2.81h-.94Zm.94,4.7h4.69V28.7H16.1Z"/><path class="cls-1" d="M22.67,27.76h4.69v.94H25.49v6.57h1.87v.94H22.67v-.94h1.88V28.7H22.67Z"/><path class="cls-1" d="M28.3,27.76h.94v1.88h.94v.94h.94v.94h.94v.94H33v.94h.94V27.76h.93v8.45h-.93V34.34H33V33.4h-.94v-.94h-.94v-.94h-.94v-.94h-.94v5.63H28.3Z"/><path class="cls-1" d="M35.81,27.76h6.57v.94H39.57v7.51h-.94V28.7H35.81Z"/><path class="cls-1" d="M9.81,39.69h6.57v.93H13.57v7.51h-.94V40.62H9.81Z"/><path class="cls-1" d="M17.32,39.69h6.57v.93H18.26v2.82H23v.94H18.26V47.2h5.63v.93H17.32Z"/><path class="cls-1" d="M24.83,40.62h.94v-.93h4.69v.93h.94v7.51h-.94V44.38H25.77v3.75h-.94Zm.94,2.82h4.69V40.62H25.77Z"/><path class="cls-1" d="M32.34,39.69h.94v1.87h.94v.94h.94v.94h.93V42.5H37v-.94H38V39.69h.94v8.44H38V42.5H37v.94h-.94v.94h-.93v-.94h-.94V42.5h-.94v5.63h-.94Z"/><path class="cls-1" d="M19.39,7.79h8.07V10.1H26.3v1.15H25.15V12.4H24v1.15H22.85V14.7H21.7v1.16H20.54V17h6.92v1.15H19.39v-2.3h1.15V14.7H21.7V13.55h1.15V12.4H24V11.25h1.15V10.1H26.3V8.94H19.39Z"/><path class="cls-1" d="M28.61,8.83h7.26V10.9h-1v1h-1v1h-1v1h-1v1h-1v1h-1v1h6.23v1H28.61V16.09h1v-1h1V14h1V13h1v-1h1v-1h1v-1H28.61Z"/><path class="cls-1" d="M36.9,9.86h6.45v1.85h-.92v.92h-.92v.92h-.92v.92h-.92v.92h-.92v.93h-.93v.92h5.53v.92H36.9V16.32h.92v-.93h.93v-.92h.92v-.92h.92v-.92h.92v-.92h.92v-.92H36.9Z"/><path class="cls-1" d="M44.28,17h1.15v1.15H44.28Z"/><path class="cls-1" d="M46.58,17h1.15v1.15H46.58Z"/><path class="cls-1" d="M48.88,17H50v1.15H48.88Z"/><rect class="cls-1" width="18.12" height="18.12"/><rect class="cls-2" y="3.85" width="3.85" height="7.98"/><rect class="cls-1" y="8.82" width="3.85" height="0.94"/></g></g></svg>